<mxfile host="Electron" modified="2023-09-14T01:17:25.319Z" agent="Mozilla/5.0 (Macintosh; Intel Mac OS X 10_15_7) AppleWebKit/537.36 (KHTML, like Gecko) draw.io/21.6.8 Chrome/114.0.5735.289 Electron/25.5.0 Safari/537.36" etag="Ss6yDBSjlKDqNcUHTQT-" version="21.6.8" type="device">
  <diagram id="u-Bgehv5GdRI6xBluCmY" name="Page-1">
    <mxGraphModel dx="1114" dy="806" grid="1" gridSize="10" guides="1" tooltips="1" connect="1" arrows="1" fold="1" page="1" pageScale="1" pageWidth="1600" pageHeight="900" math="0" shadow="0">
      <root>
        <mxCell id="0" />
        <mxCell id="1" parent="0" />
        <mxCell id="NKZoFBCDpuy2na6IxqbC-1" value="" style="rounded=0;whiteSpace=wrap;html=1;" parent="1" vertex="1">
          <mxGeometry x="40" y="40" width="560" height="800" as="geometry" />
        </mxCell>
        <mxCell id="NKZoFBCDpuy2na6IxqbC-2" value="" style="rounded=0;whiteSpace=wrap;html=1;" parent="1" vertex="1">
          <mxGeometry x="600" y="40" width="560" height="800" as="geometry" />
        </mxCell>
        <mxCell id="NKZoFBCDpuy2na6IxqbC-3" value="" style="rounded=0;whiteSpace=wrap;html=1;" parent="1" vertex="1">
          <mxGeometry x="1160" y="40" width="400" height="800" as="geometry" />
        </mxCell>
        <mxCell id="NKZoFBCDpuy2na6IxqbC-17" value="" style="group" parent="1" vertex="1" connectable="0">
          <mxGeometry x="40" y="40" width="560" height="50" as="geometry" />
        </mxCell>
        <mxCell id="NKZoFBCDpuy2na6IxqbC-15" value="" style="rounded=0;whiteSpace=wrap;html=1;fillColor=#5762b3;" parent="NKZoFBCDpuy2na6IxqbC-17" vertex="1">
          <mxGeometry width="560" height="50" as="geometry" />
        </mxCell>
        <mxCell id="NKZoFBCDpuy2na6IxqbC-16" value="&lt;font color=&quot;#ffffff&quot; style=&quot;font-size: 24px;&quot;&gt;User Edge, Field Deployed Compute&lt;/font&gt;" style="text;strokeColor=none;align=center;fillColor=none;html=1;verticalAlign=middle;whiteSpace=wrap;rounded=0;" parent="NKZoFBCDpuy2na6IxqbC-17" vertex="1">
          <mxGeometry x="20" y="10" width="490" height="30" as="geometry" />
        </mxCell>
        <mxCell id="NKZoFBCDpuy2na6IxqbC-20" value="" style="group;fillColor=none;" parent="1" vertex="1" connectable="0">
          <mxGeometry x="600" y="40" width="560" height="50" as="geometry" />
        </mxCell>
        <mxCell id="NKZoFBCDpuy2na6IxqbC-18" value="" style="rounded=0;whiteSpace=wrap;html=1;fillColor=#d5e8d4;strokeColor=#82b366;" parent="NKZoFBCDpuy2na6IxqbC-20" vertex="1">
          <mxGeometry width="560" height="50" as="geometry" />
        </mxCell>
        <mxCell id="NKZoFBCDpuy2na6IxqbC-19" value="&lt;font style=&quot;font-size: 24px;&quot;&gt;Service Provider Edge, Regional Compute&lt;/font&gt;" style="text;strokeColor=none;align=center;fillColor=#d5e8d4;html=1;verticalAlign=middle;whiteSpace=wrap;rounded=0;" parent="NKZoFBCDpuy2na6IxqbC-20" vertex="1">
          <mxGeometry x="20" y="10" width="490" height="30" as="geometry" />
        </mxCell>
        <mxCell id="NKZoFBCDpuy2na6IxqbC-23" value="" style="group" parent="1" vertex="1" connectable="0">
          <mxGeometry x="1160" y="40" width="400" height="50" as="geometry" />
        </mxCell>
        <mxCell id="NKZoFBCDpuy2na6IxqbC-21" value="" style="rounded=0;whiteSpace=wrap;html=1;fillColor=#E7DBF0;" parent="NKZoFBCDpuy2na6IxqbC-23" vertex="1">
          <mxGeometry width="400" height="50" as="geometry" />
        </mxCell>
        <mxCell id="NKZoFBCDpuy2na6IxqbC-22" value="&lt;font style=&quot;font-size: 24px;&quot;&gt;Global and Cloud Compute&lt;/font&gt;" style="text;strokeColor=none;align=center;fillColor=none;html=1;verticalAlign=middle;whiteSpace=wrap;rounded=0;" parent="NKZoFBCDpuy2na6IxqbC-23" vertex="1">
          <mxGeometry x="50" y="10" width="300" height="30" as="geometry" />
        </mxCell>
        <mxCell id="iU7ZojFt_CZGEspTZ9bw-25" value="" style="rounded=0;whiteSpace=wrap;html=1;fillColor=#f5f5f5;strokeColor=#666666;fontColor=#333333;" parent="1" vertex="1">
          <mxGeometry x="170" y="90" width="210" height="750" as="geometry" />
        </mxCell>
        <mxCell id="rkRexL7u3ubiK1zSjF01-2" value="" style="endArrow=none;html=1;rounded=0;exitX=0.001;exitY=0.697;exitDx=0;exitDy=0;exitPerimeter=0;entryX=1.002;entryY=0.702;entryDx=0;entryDy=0;entryPerimeter=0;fontColor=#4277BB;fontSize=13;" parent="1" source="NKZoFBCDpuy2na6IxqbC-1" target="NKZoFBCDpuy2na6IxqbC-3" edge="1">
          <mxGeometry width="50" height="50" relative="1" as="geometry">
            <mxPoint x="780" y="380" as="sourcePoint" />
            <mxPoint x="830" y="330" as="targetPoint" />
          </mxGeometry>
        </mxCell>
        <mxCell id="rkRexL7u3ubiK1zSjF01-3" value="" style="endArrow=none;html=1;rounded=0;exitX=0.004;exitY=0.352;exitDx=0;exitDy=0;exitPerimeter=0;entryX=1.005;entryY=0.347;entryDx=0;entryDy=0;entryPerimeter=0;fontColor=#4277BB;fontSize=13;" parent="1" source="NKZoFBCDpuy2na6IxqbC-1" target="NKZoFBCDpuy2na6IxqbC-3" edge="1">
          <mxGeometry width="50" height="50" relative="1" as="geometry">
            <mxPoint x="810" y="370" as="sourcePoint" />
            <mxPoint x="860" y="320" as="targetPoint" />
          </mxGeometry>
        </mxCell>
        <mxCell id="rkRexL7u3ubiK1zSjF01-4" value="&lt;font style=&quot;font-size: 24px;&quot;&gt;Infrastructure&lt;/font&gt;" style="text;strokeColor=none;align=center;fillColor=none;html=1;verticalAlign=middle;whiteSpace=wrap;rounded=0;rotation=-90;" parent="1" vertex="1">
          <mxGeometry x="-60" y="700" width="160" height="30" as="geometry" />
        </mxCell>
        <mxCell id="rkRexL7u3ubiK1zSjF01-5" value="&lt;font style=&quot;font-size: 24px;&quot;&gt;Platform&lt;/font&gt;" style="text;strokeColor=none;align=center;fillColor=none;html=1;verticalAlign=middle;whiteSpace=wrap;rounded=0;rotation=-90;" parent="1" vertex="1">
          <mxGeometry x="-45" y="435" width="130" height="30" as="geometry" />
        </mxCell>
        <mxCell id="rkRexL7u3ubiK1zSjF01-6" value="&lt;font style=&quot;font-size: 24px;&quot;&gt;Application&lt;/font&gt;" style="text;strokeColor=none;align=center;fillColor=none;html=1;verticalAlign=middle;whiteSpace=wrap;rounded=0;rotation=-90;" parent="1" vertex="1">
          <mxGeometry x="-60" y="190" width="160" height="30" as="geometry" />
        </mxCell>
        <mxCell id="dV2BF6gwbEOyX98F7W6L-6" value="&lt;font style=&quot;font-size: 13px;&quot;&gt;CAMERAS&lt;/font&gt;" style="points=[];aspect=fixed;html=1;align=center;shadow=0;dashed=0;image;image=img/lib/allied_telesis/security/Surveillance_Camera_Ceiling.svg;fontColor=#4277BB;fontSize=13;" parent="1" vertex="1">
          <mxGeometry x="213.99999999999997" y="690.775" width="32" height="30.45" as="geometry" />
        </mxCell>
        <mxCell id="dV2BF6gwbEOyX98F7W6L-9" value="&lt;span style=&quot;font-size: 13px;&quot;&gt;SENSORS&lt;br style=&quot;font-size: 13px;&quot;&gt;&lt;/span&gt;" style="aspect=fixed;perimeter=ellipsePerimeter;html=1;align=center;shadow=0;dashed=0;fontColor=#4277BB;labelBackgroundColor=#ffffff;fontSize=13;spacingTop=3;image;image=img/lib/ibm/users/sensor.svg;" parent="1" vertex="1">
          <mxGeometry x="88" y="620" width="32" height="31.2" as="geometry" />
        </mxCell>
        <mxCell id="dV2BF6gwbEOyX98F7W6L-11" value="&lt;font style=&quot;font-size: 13px;&quot;&gt;ROBOTS&lt;/font&gt;" style="aspect=fixed;perimeter=ellipsePerimeter;html=1;align=center;shadow=0;dashed=0;fontColor=#4277BB;labelBackgroundColor=#ffffff;fontSize=13;spacingTop=3;image;image=img/lib/ibm/users/user.svg;strokeColor=#4277BB;strokeWidth=2;" parent="1" vertex="1">
          <mxGeometry x="88" y="690" width="32" height="32" as="geometry" />
        </mxCell>
        <mxCell id="anpZV6EC-k3CciJtOTf7-1" value="&lt;span style=&quot;font-size: 13px;&quot;&gt;MOBILE DEVICES&lt;/span&gt;" style="points=[];aspect=fixed;html=1;align=center;shadow=0;dashed=0;image;image=img/lib/allied_telesis/computer_and_terminals/Tablet.svg;fontColor=#4277BB;fontSize=13;" parent="1" vertex="1">
          <mxGeometry x="222.41999999999996" y="619.6" width="15.16" height="32" as="geometry" />
        </mxCell>
        <mxCell id="anpZV6EC-k3CciJtOTf7-2" value="&lt;font style=&quot;font-size: 13px;&quot;&gt;SOFTWARE&lt;br style=&quot;font-size: 13px;&quot;&gt;AS A&lt;br style=&quot;font-size: 13px;&quot;&gt;SERVICE&lt;/font&gt;" style="ellipse;shape=cloud;whiteSpace=wrap;html=1;fontColor=#4277BB;fontSize=13;" parent="1" vertex="1">
          <mxGeometry x="1300" y="140" width="120" height="80" as="geometry" />
        </mxCell>
        <mxCell id="iU7ZojFt_CZGEspTZ9bw-1" value="&lt;font style=&quot;font-size: 13px;&quot;&gt;fixed function devices&lt;br style=&quot;font-size: 13px;&quot;&gt;&lt;/font&gt;" style="text;strokeColor=none;align=center;fillColor=none;html=1;verticalAlign=middle;whiteSpace=wrap;rounded=0;fontSize=13;" parent="1" vertex="1">
          <mxGeometry x="40" y="90" width="130" height="30" as="geometry" />
        </mxCell>
        <mxCell id="iU7ZojFt_CZGEspTZ9bw-2" value="programmable devices" style="text;strokeColor=none;align=center;fillColor=none;html=1;verticalAlign=middle;whiteSpace=wrap;rounded=0;fontSize=13;" parent="1" vertex="1">
          <mxGeometry x="190" y="90" width="140" height="30" as="geometry" />
        </mxCell>
        <mxCell id="iU7ZojFt_CZGEspTZ9bw-3" value="edge servers &amp;amp; gateways" style="text;strokeColor=none;align=center;fillColor=none;html=1;verticalAlign=middle;whiteSpace=wrap;rounded=0;fontSize=13;" parent="1" vertex="1">
          <mxGeometry x="420" y="90" width="150" height="30" as="geometry" />
        </mxCell>
        <mxCell id="iU7ZojFt_CZGEspTZ9bw-4" value="&lt;font style=&quot;font-size: 13px;&quot;&gt;DEDICATED&lt;br style=&quot;font-size: 13px;&quot;&gt;EDGE SVCS.&lt;/font&gt;" style="aspect=fixed;perimeter=ellipsePerimeter;html=1;align=center;shadow=0;dashed=0;fontColor=#4277BB;labelBackgroundColor=#ffffff;fontSize=13;spacingTop=3;image;image=img/lib/ibm/applications/enterprise_applications.svg;" parent="1" vertex="1">
          <mxGeometry x="209.99999999999997" y="130.00000000000003" width="32" height="32" as="geometry" />
        </mxCell>
        <mxCell id="iU7ZojFt_CZGEspTZ9bw-5" value="&lt;font style=&quot;font-size: 13px;&quot;&gt;DEDICATED&lt;br style=&quot;border-color: var(--border-color); font-size: 13px;&quot;&gt;AI SVCS.&lt;/font&gt;" style="aspect=fixed;perimeter=ellipsePerimeter;html=1;align=center;shadow=0;dashed=0;fontColor=#4277BB;labelBackgroundColor=#ffffff;fontSize=13;spacingTop=3;image;image=img/lib/ibm/miscellaneous/cognitive_services.svg;" parent="1" vertex="1">
          <mxGeometry x="209.99999999999997" y="223" width="32" height="32" as="geometry" />
        </mxCell>
        <mxCell id="iU7ZojFt_CZGEspTZ9bw-7" value="&lt;font style=&quot;font-size: 13px;&quot;&gt;DEDICATED&lt;br style=&quot;border-color: var(--border-color); font-size: 13px;&quot;&gt;EDGE ANALYTICS&lt;/font&gt;" style="aspect=fixed;perimeter=ellipsePerimeter;html=1;align=center;shadow=0;dashed=0;fontColor=#4277BB;labelBackgroundColor=#ffffff;fontSize=13;spacingTop=3;image;image=img/lib/ibm/analytics/analytics.svg;" parent="1" vertex="1">
          <mxGeometry x="308" y="223" width="32" height="32" as="geometry" />
        </mxCell>
        <mxCell id="iU7ZojFt_CZGEspTZ9bw-8" value="&lt;font style=&quot;font-size: 13px;&quot;&gt;DEDICATED&lt;br style=&quot;border-color: var(--border-color); font-size: 13px;&quot;&gt;EDGE DATA&lt;/font&gt;" style="aspect=fixed;perimeter=ellipsePerimeter;html=1;align=center;shadow=0;dashed=0;fontColor=#4277BB;labelBackgroundColor=#ffffff;fontSize=13;spacingTop=3;image;image=img/lib/ibm/data/data_services.svg;" parent="1" vertex="1">
          <mxGeometry x="312" y="130.39000000000004" width="32" height="31.22" as="geometry" />
        </mxCell>
        <mxCell id="iU7ZojFt_CZGEspTZ9bw-17" value="&lt;font style=&quot;font-size: 13px;&quot;&gt;SHARED&lt;br style=&quot;font-size: 13px;&quot;&gt;EDGE SVCS.&lt;/font&gt;" style="aspect=fixed;perimeter=ellipsePerimeter;html=1;align=center;shadow=0;dashed=0;fontColor=#4277BB;labelBackgroundColor=#ffffff;fontSize=13;spacingTop=3;image;image=img/lib/ibm/applications/enterprise_applications.svg;" parent="1" vertex="1">
          <mxGeometry x="421" y="130.00000000000003" width="32" height="32" as="geometry" />
        </mxCell>
        <mxCell id="iU7ZojFt_CZGEspTZ9bw-18" value="&lt;font style=&quot;font-size: 13px;&quot;&gt;SHARED&lt;br style=&quot;font-size: 13px;&quot;&gt;AI SVCS.&lt;/font&gt;" style="aspect=fixed;perimeter=ellipsePerimeter;html=1;align=center;shadow=0;dashed=0;fontColor=#4277BB;labelBackgroundColor=#ffffff;fontSize=13;spacingTop=3;image;image=img/lib/ibm/miscellaneous/cognitive_services.svg;" parent="1" vertex="1">
          <mxGeometry x="421" y="223" width="32" height="32" as="geometry" />
        </mxCell>
        <mxCell id="iU7ZojFt_CZGEspTZ9bw-19" value="&lt;font style=&quot;font-size: 13px;&quot;&gt;SHARED&lt;br style=&quot;font-size: 13px;&quot;&gt;EDGE ANALYTICS&lt;/font&gt;" style="aspect=fixed;perimeter=ellipsePerimeter;html=1;align=center;shadow=0;dashed=0;fontColor=#4277BB;labelBackgroundColor=#ffffff;fontSize=13;spacingTop=3;image;image=img/lib/ibm/analytics/analytics.svg;" parent="1" vertex="1">
          <mxGeometry x="521" y="223" width="32" height="32" as="geometry" />
        </mxCell>
        <mxCell id="iU7ZojFt_CZGEspTZ9bw-20" value="&lt;font style=&quot;font-size: 13px;&quot;&gt;AGGREGATED&lt;br style=&quot;font-size: 13px;&quot;&gt;EDGE DATA&lt;/font&gt;" style="aspect=fixed;perimeter=ellipsePerimeter;html=1;align=center;shadow=0;dashed=0;fontColor=#4277BB;labelBackgroundColor=#ffffff;fontSize=13;spacingTop=3;image;image=img/lib/ibm/data/data_services.svg;" parent="1" vertex="1">
          <mxGeometry x="521" y="130.39000000000004" width="32" height="31.22" as="geometry" />
        </mxCell>
        <mxCell id="iU7ZojFt_CZGEspTZ9bw-21" value="&lt;font style=&quot;font-size: 13px;&quot;&gt;CONTAINER&lt;br style=&quot;font-size: 13px;&quot;&gt;ENGINE&lt;br style=&quot;font-size: 13px;&quot;&gt;&lt;/font&gt;" style="aspect=fixed;perimeter=ellipsePerimeter;html=1;align=center;shadow=0;dashed=0;fontColor=#4277BB;labelBackgroundColor=#ffffff;fontSize=13;spacingTop=3;image;image=img/lib/ibm/miscellaneous/ibm_containers.svg;" parent="1" vertex="1">
          <mxGeometry x="421" y="522" width="32" height="32" as="geometry" />
        </mxCell>
        <mxCell id="iU7ZojFt_CZGEspTZ9bw-22" value="&lt;font style=&quot;font-size: 13px;&quot;&gt;CONTAINER&lt;br style=&quot;font-size: 13px;&quot;&gt;CLUSTER&lt;br style=&quot;font-size: 13px;&quot;&gt;&lt;/font&gt;" style="aspect=fixed;perimeter=ellipsePerimeter;html=1;align=center;shadow=0;dashed=0;fontColor=#4277BB;labelBackgroundColor=#ffffff;fontSize=13;spacingTop=3;image;image=img/lib/ibm/management/management.svg;glass=1;strokeColor=#4277BB;strokeWidth=2;fillColor=#4277BB;" parent="1" vertex="1">
          <mxGeometry x="521" y="521.6" width="32" height="32.8" as="geometry" />
        </mxCell>
        <mxCell id="iU7ZojFt_CZGEspTZ9bw-24" value="&lt;font style=&quot;font-size: 13px;&quot;&gt;CONTAINER&lt;br style=&quot;font-size: 13px;&quot;&gt;ENGINE&lt;br style=&quot;font-size: 13px;&quot;&gt;&lt;/font&gt;" style="aspect=fixed;perimeter=ellipsePerimeter;html=1;align=center;shadow=0;dashed=0;fontColor=#4277BB;labelBackgroundColor=#ffffff;fontSize=13;spacingTop=3;image;image=img/lib/ibm/miscellaneous/ibm_containers.svg;" parent="1" vertex="1">
          <mxGeometry x="209.99999999999997" y="522" width="32" height="32" as="geometry" />
        </mxCell>
        <mxCell id="iU7ZojFt_CZGEspTZ9bw-26" value="&lt;font style=&quot;font-size: 13px;&quot;&gt;CONTAINER&lt;br style=&quot;font-size: 13px;&quot;&gt;REPOSITORY&lt;/font&gt;" style="aspect=fixed;perimeter=ellipsePerimeter;html=1;align=center;shadow=0;dashed=0;fontColor=#4277BB;labelBackgroundColor=#ffffff;fontSize=13;spacingTop=3;image;image=img/lib/ibm/data/device_registry.svg;glass=1;strokeColor=#5192E6;strokeWidth=2;fillColor=#A78F2D;" parent="1" vertex="1">
          <mxGeometry x="421" y="438" width="32" height="32" as="geometry" />
        </mxCell>
        <mxCell id="iU7ZojFt_CZGEspTZ9bw-27" value="&lt;font style=&quot;font-size: 13px;&quot;&gt;MODEL&lt;br style=&quot;font-size: 13px;&quot;&gt;REPOSITORY&lt;/font&gt;" style="aspect=fixed;perimeter=ellipsePerimeter;html=1;align=center;shadow=0;dashed=0;fontColor=#4277BB;labelBackgroundColor=#ffffff;fontSize=13;spacingTop=3;image;image=img/lib/ibm/data/file_repository.svg;glass=1;strokeColor=#5192E6;strokeWidth=2;fillColor=#A78F2D;" parent="1" vertex="1">
          <mxGeometry x="521" y="438" width="32" height="32" as="geometry" />
        </mxCell>
        <mxCell id="iU7ZojFt_CZGEspTZ9bw-30" value="&lt;font style=&quot;font-size: 13px;&quot;&gt;&lt;font style=&quot;font-size: 13px;&quot;&gt;DEVICE&lt;br style=&quot;font-size: 13px;&quot;&gt;MGMT.&lt;/font&gt;&lt;br style=&quot;font-size: 13px;&quot;&gt;&lt;/font&gt;" style="image;aspect=fixed;html=1;points=[];align=center;fontSize=13;image=img/lib/azure2/iot/IoT_Hub.svg;fontColor=#4277BB;" parent="1" vertex="1">
          <mxGeometry x="421" y="353" width="32" height="32" as="geometry" />
        </mxCell>
        <mxCell id="iU7ZojFt_CZGEspTZ9bw-33" value="&lt;font style=&quot;font-size: 13px;&quot;&gt;APPLICATION&lt;br style=&quot;font-size: 13px;&quot;&gt;MGMT.&lt;/font&gt;" style="aspect=fixed;perimeter=ellipsePerimeter;html=1;align=center;shadow=0;dashed=0;fontColor=#4277BB;labelBackgroundColor=#ffffff;fontSize=13;spacingTop=3;image;image=img/lib/ibm/management/it_service_management.svg;glass=1;strokeColor=#4277BB;strokeWidth=2;fillColor=#4277BB;" parent="1" vertex="1">
          <mxGeometry x="521" y="353" width="32" height="32" as="geometry" />
        </mxCell>
        <mxCell id="iU7ZojFt_CZGEspTZ9bw-34" value="&lt;font style=&quot;font-size: 13px;&quot;&gt;SINGLE NODE&lt;br style=&quot;font-size: 13px;&quot;&gt;CLUSTER&lt;br style=&quot;font-size: 13px;&quot;&gt;&lt;/font&gt;" style="aspect=fixed;perimeter=ellipsePerimeter;html=1;align=center;shadow=0;dashed=0;fontColor=#4277BB;labelBackgroundColor=#ffffff;fontSize=13;spacingTop=3;image;image=img/lib/ibm/management/management.svg;glass=1;strokeColor=#4277BB;strokeWidth=2;fillColor=#4277BB;" parent="1" vertex="1">
          <mxGeometry x="312" y="521.6" width="32" height="32.8" as="geometry" />
        </mxCell>
        <mxCell id="iU7ZojFt_CZGEspTZ9bw-35" value="&lt;font style=&quot;font-size: 13px;&quot;&gt;CONTAINER&lt;br style=&quot;font-size: 13px;&quot;&gt;REPO / CACHE&lt;/font&gt;" style="aspect=fixed;perimeter=ellipsePerimeter;html=1;align=center;shadow=0;dashed=0;fontColor=#4277BB;labelBackgroundColor=#ffffff;fontSize=13;spacingTop=3;image;image=img/lib/ibm/data/device_registry.svg;glass=1;strokeColor=#5192E6;strokeWidth=2;fillColor=#A78F2D;" parent="1" vertex="1">
          <mxGeometry x="209.99999999999997" y="438" width="32" height="32" as="geometry" />
        </mxCell>
        <mxCell id="iU7ZojFt_CZGEspTZ9bw-36" value="&lt;font style=&quot;font-size: 13px;&quot;&gt;MODEL&lt;br style=&quot;font-size: 13px;&quot;&gt;REPO / CACHE&lt;/font&gt;" style="aspect=fixed;perimeter=ellipsePerimeter;html=1;align=center;shadow=0;dashed=0;fontColor=#4277BB;labelBackgroundColor=#ffffff;fontSize=13;spacingTop=3;image;image=img/lib/ibm/data/file_repository.svg;glass=1;strokeColor=#5192E6;strokeWidth=2;fillColor=#A78F2D;" parent="1" vertex="1">
          <mxGeometry x="312" y="438" width="32" height="32" as="geometry" />
        </mxCell>
        <mxCell id="iU7ZojFt_CZGEspTZ9bw-37" value="&lt;font style=&quot;font-size: 13px;&quot;&gt;&lt;font style=&quot;font-size: 13px;&quot;&gt;DEVICE&lt;br style=&quot;font-size: 13px;&quot;&gt;MGMT.&lt;/font&gt;&lt;br style=&quot;font-size: 13px;&quot;&gt;&lt;/font&gt;" style="image;aspect=fixed;html=1;points=[];align=center;fontSize=13;image=img/lib/azure2/iot/IoT_Hub.svg;fontColor=#4277BB;" parent="1" vertex="1">
          <mxGeometry x="209.99999999999997" y="353" width="32" height="32" as="geometry" />
        </mxCell>
        <mxCell id="iU7ZojFt_CZGEspTZ9bw-38" value="&lt;div style=&quot;font-size: 13px;&quot;&gt;&lt;font style=&quot;font-size: 13px;&quot;&gt;CONNECTIVITY&lt;/font&gt;&lt;br style=&quot;font-size: 13px;&quot;&gt;&lt;/div&gt;" style="aspect=fixed;perimeter=ellipsePerimeter;html=1;align=center;shadow=0;dashed=0;image;image=img/lib/ibm/infrastructure/transformation_connectivity.svg;strokeColor=#FF0000;fillColor=#FFFF66;gradientColor=none;fontColor=#4277BB;labelBackgroundColor=#ffffff;spacingTop=3;fontSize=13;" parent="1" vertex="1">
          <mxGeometry x="421" y="760" width="32" height="32" as="geometry" />
        </mxCell>
        <mxCell id="iU7ZojFt_CZGEspTZ9bw-39" value="&lt;font style=&quot;font-size: 13px;&quot;&gt;STORAGE&lt;/font&gt;" style="aspect=fixed;perimeter=ellipsePerimeter;html=1;align=center;shadow=0;dashed=0;fontColor=#4277BB;labelBackgroundColor=#ffffff;fontSize=13;spacingTop=3;image;image=img/lib/ibm/data/data_services.svg;" parent="1" vertex="1">
          <mxGeometry x="521" y="760.39" width="32" height="31.22" as="geometry" />
        </mxCell>
        <mxCell id="iU7ZojFt_CZGEspTZ9bw-40" value="shared &amp;amp; multi-tenant services" style="text;strokeColor=none;align=center;fillColor=none;html=1;verticalAlign=middle;whiteSpace=wrap;rounded=0;fontSize=13;" parent="1" vertex="1">
          <mxGeometry x="650" y="90" width="180" height="30" as="geometry" />
        </mxCell>
        <mxCell id="iU7ZojFt_CZGEspTZ9bw-41" value="regional cloud services" style="text;strokeColor=none;align=center;fillColor=none;html=1;verticalAlign=middle;whiteSpace=wrap;rounded=0;fontSize=13;" parent="1" vertex="1">
          <mxGeometry x="900" y="90" width="170" height="30" as="geometry" />
        </mxCell>
        <mxCell id="iU7ZojFt_CZGEspTZ9bw-42" value="&lt;font style=&quot;font-size: 13px;&quot;&gt;SOFTWARE&lt;br style=&quot;font-size: 13px;&quot;&gt;AS A&lt;br style=&quot;font-size: 13px;&quot;&gt;SERVICE&lt;/font&gt;" style="ellipse;shape=cloud;whiteSpace=wrap;html=1;fontColor=#4277BB;fontSize=13;" parent="1" vertex="1">
          <mxGeometry x="925" y="130" width="120" height="80" as="geometry" />
        </mxCell>
        <mxCell id="iU7ZojFt_CZGEspTZ9bw-43" value="&lt;font style=&quot;font-size: 13px;&quot;&gt;PLATFORM&lt;br style=&quot;font-size: 13px;&quot;&gt;AS A&lt;br style=&quot;font-size: 13px;&quot;&gt;SERVICE&lt;/font&gt;" style="ellipse;shape=cloud;whiteSpace=wrap;html=1;fontColor=#4277BB;fontSize=13;" parent="1" vertex="1">
          <mxGeometry x="1300" y="392" width="120" height="80" as="geometry" />
        </mxCell>
        <mxCell id="iU7ZojFt_CZGEspTZ9bw-44" value="&lt;font style=&quot;font-size: 13px;&quot;&gt;PLATFORM&lt;br style=&quot;font-size: 13px;&quot;&gt;AS A&lt;br style=&quot;font-size: 13px;&quot;&gt;SERVICE&lt;/font&gt;" style="ellipse;shape=cloud;whiteSpace=wrap;html=1;fontColor=#4277BB;fontSize=13;" parent="1" vertex="1">
          <mxGeometry x="925" y="400" width="120" height="80" as="geometry" />
        </mxCell>
        <mxCell id="iU7ZojFt_CZGEspTZ9bw-45" value="&lt;font style=&quot;font-size: 13px;&quot;&gt;INFRA.&lt;br style=&quot;font-size: 13px;&quot;&gt;AS A&lt;br style=&quot;font-size: 13px;&quot;&gt;SERVICE&lt;/font&gt;" style="ellipse;shape=cloud;whiteSpace=wrap;html=1;fontColor=#4277BB;fontSize=13;" parent="1" vertex="1">
          <mxGeometry x="1300" y="680" width="120" height="80" as="geometry" />
        </mxCell>
        <mxCell id="iU7ZojFt_CZGEspTZ9bw-46" value="&lt;font style=&quot;font-size: 13px;&quot;&gt;INFRA.&lt;br style=&quot;font-size: 13px;&quot;&gt;AS A&lt;br style=&quot;font-size: 13px;&quot;&gt;SERVICE&lt;/font&gt;" style="ellipse;shape=cloud;whiteSpace=wrap;html=1;fontColor=#4277BB;fontSize=13;" parent="1" vertex="1">
          <mxGeometry x="925" y="675" width="120" height="80" as="geometry" />
        </mxCell>
        <mxCell id="iU7ZojFt_CZGEspTZ9bw-47" value="&lt;font style=&quot;font-size: 13px;&quot;&gt;IOT ROUTER&lt;/font&gt;" style="outlineConnect=0;dashed=0;verticalLabelPosition=bottom;verticalAlign=top;align=center;html=1;shape=mxgraph.aws3.router;fillColor=#F58534;gradientColor=none;fontColor=#4277BB;fontSize=13;" parent="1" vertex="1">
          <mxGeometry x="88" y="760" width="32" height="32" as="geometry" />
        </mxCell>
        <mxCell id="otucCCkhgbF7Wdb0TqmZ-1" value="&lt;font style=&quot;font-size: 13px;&quot;&gt;SHARED&lt;br style=&quot;font-size: 13px;&quot;&gt;EDGE SVCS.&lt;/font&gt;" style="aspect=fixed;perimeter=ellipsePerimeter;html=1;align=center;shadow=0;dashed=0;fontColor=#4277BB;labelBackgroundColor=#ffffff;fontSize=13;spacingTop=3;image;image=img/lib/ibm/applications/enterprise_applications.svg;" parent="1" vertex="1">
          <mxGeometry x="672" y="130.00000000000003" width="32" height="32" as="geometry" />
        </mxCell>
        <mxCell id="otucCCkhgbF7Wdb0TqmZ-2" value="&lt;font style=&quot;font-size: 13px;&quot;&gt;SHARED&lt;br style=&quot;font-size: 13px;&quot;&gt;AI SVCS.&lt;/font&gt;" style="aspect=fixed;perimeter=ellipsePerimeter;html=1;align=center;shadow=0;dashed=0;fontColor=#4277BB;labelBackgroundColor=#ffffff;fontSize=13;spacingTop=3;image;image=img/lib/ibm/miscellaneous/cognitive_services.svg;" parent="1" vertex="1">
          <mxGeometry x="672" y="223" width="32" height="32" as="geometry" />
        </mxCell>
        <mxCell id="otucCCkhgbF7Wdb0TqmZ-3" value="&lt;font style=&quot;font-size: 13px;&quot;&gt;SHARED&lt;br style=&quot;font-size: 13px;&quot;&gt;EDGE ANALYTICS&lt;/font&gt;" style="aspect=fixed;perimeter=ellipsePerimeter;html=1;align=center;shadow=0;dashed=0;fontColor=#4277BB;labelBackgroundColor=#ffffff;fontSize=13;spacingTop=3;image;image=img/lib/ibm/analytics/analytics.svg;" parent="1" vertex="1">
          <mxGeometry x="779" y="223" width="32" height="32" as="geometry" />
        </mxCell>
        <mxCell id="otucCCkhgbF7Wdb0TqmZ-4" value="&lt;font style=&quot;font-size: 13px;&quot;&gt;AGGREGATED&lt;br style=&quot;font-size: 13px;&quot;&gt;EDGE DATA&lt;/font&gt;" style="aspect=fixed;perimeter=ellipsePerimeter;html=1;align=center;shadow=0;dashed=0;fontColor=#4277BB;labelBackgroundColor=#ffffff;fontSize=13;spacingTop=3;image;image=img/lib/ibm/data/data_services.svg;" parent="1" vertex="1">
          <mxGeometry x="779" y="130.39000000000004" width="32" height="31.22" as="geometry" />
        </mxCell>
        <mxCell id="otucCCkhgbF7Wdb0TqmZ-5" value="&lt;font style=&quot;font-size: 13px;&quot;&gt;CONTAINER&lt;br style=&quot;font-size: 13px;&quot;&gt;ENGINE&lt;br style=&quot;font-size: 13px;&quot;&gt;&lt;/font&gt;" style="aspect=fixed;perimeter=ellipsePerimeter;html=1;align=center;shadow=0;dashed=0;fontColor=#4277BB;labelBackgroundColor=#ffffff;fontSize=13;spacingTop=3;image;image=img/lib/ibm/miscellaneous/ibm_containers.svg;" parent="1" vertex="1">
          <mxGeometry x="672" y="522" width="32" height="32" as="geometry" />
        </mxCell>
        <mxCell id="otucCCkhgbF7Wdb0TqmZ-6" value="&lt;font style=&quot;font-size: 13px;&quot;&gt;CONTAINER&lt;br style=&quot;font-size: 13px;&quot;&gt;CLUSTER&lt;br style=&quot;font-size: 13px;&quot;&gt;&lt;/font&gt;" style="aspect=fixed;perimeter=ellipsePerimeter;html=1;align=center;shadow=0;dashed=0;fontColor=#4277BB;labelBackgroundColor=#ffffff;fontSize=13;spacingTop=3;image;image=img/lib/ibm/management/management.svg;glass=1;strokeColor=#4277BB;strokeWidth=2;fillColor=#4277BB;" parent="1" vertex="1">
          <mxGeometry x="779" y="521.6" width="32" height="32.8" as="geometry" />
        </mxCell>
        <mxCell id="otucCCkhgbF7Wdb0TqmZ-7" value="&lt;font style=&quot;font-size: 13px;&quot;&gt;CONTAINER&lt;br style=&quot;font-size: 13px;&quot;&gt;REPOSITORY&lt;/font&gt;" style="aspect=fixed;perimeter=ellipsePerimeter;html=1;align=center;shadow=0;dashed=0;fontColor=#4277BB;labelBackgroundColor=#ffffff;fontSize=13;spacingTop=3;image;image=img/lib/ibm/data/device_registry.svg;glass=1;strokeColor=#5192E6;strokeWidth=2;fillColor=#A78F2D;" parent="1" vertex="1">
          <mxGeometry x="672" y="438" width="32" height="32" as="geometry" />
        </mxCell>
        <mxCell id="otucCCkhgbF7Wdb0TqmZ-8" value="&lt;font style=&quot;font-size: 13px;&quot;&gt;MODEL&lt;br style=&quot;font-size: 13px;&quot;&gt;REPOSITORY&lt;/font&gt;" style="aspect=fixed;perimeter=ellipsePerimeter;html=1;align=center;shadow=0;dashed=0;fontColor=#4277BB;labelBackgroundColor=#ffffff;fontSize=13;spacingTop=3;image;image=img/lib/ibm/data/file_repository.svg;glass=1;strokeColor=#5192E6;strokeWidth=2;fillColor=#A78F2D;" parent="1" vertex="1">
          <mxGeometry x="779" y="438" width="32" height="32" as="geometry" />
        </mxCell>
        <mxCell id="otucCCkhgbF7Wdb0TqmZ-9" value="&lt;font style=&quot;font-size: 13px;&quot;&gt;&lt;font style=&quot;font-size: 13px;&quot;&gt;DEVICE&lt;br style=&quot;font-size: 13px;&quot;&gt;MGMT.&lt;/font&gt;&lt;br style=&quot;font-size: 13px;&quot;&gt;&lt;/font&gt;" style="image;aspect=fixed;html=1;points=[];align=center;fontSize=13;image=img/lib/azure2/iot/IoT_Hub.svg;fontColor=#4277BB;" parent="1" vertex="1">
          <mxGeometry x="672" y="353" width="32" height="32" as="geometry" />
        </mxCell>
        <mxCell id="otucCCkhgbF7Wdb0TqmZ-10" value="&lt;font style=&quot;font-size: 13px;&quot;&gt;APPLICATION&lt;br style=&quot;font-size: 13px;&quot;&gt;MGMT.&lt;/font&gt;" style="aspect=fixed;perimeter=ellipsePerimeter;html=1;align=center;shadow=0;dashed=0;fontColor=#4277BB;labelBackgroundColor=#ffffff;fontSize=13;spacingTop=3;image;image=img/lib/ibm/management/it_service_management.svg;glass=1;strokeColor=#4277BB;strokeWidth=2;fillColor=#4277BB;" parent="1" vertex="1">
          <mxGeometry x="779" y="353" width="32" height="32" as="geometry" />
        </mxCell>
        <mxCell id="otucCCkhgbF7Wdb0TqmZ-11" value="&lt;div style=&quot;font-size: 13px;&quot;&gt;&lt;font style=&quot;font-size: 13px;&quot;&gt;CONNECTIVITY&lt;/font&gt;&lt;br style=&quot;font-size: 13px;&quot;&gt;&lt;/div&gt;" style="aspect=fixed;perimeter=ellipsePerimeter;html=1;align=center;shadow=0;dashed=0;image;image=img/lib/ibm/infrastructure/transformation_connectivity.svg;strokeColor=#FF0000;fillColor=#FFFF66;gradientColor=none;fontColor=#4277BB;labelBackgroundColor=#ffffff;spacingTop=3;fontSize=13;" parent="1" vertex="1">
          <mxGeometry x="672" y="760" width="32" height="32" as="geometry" />
        </mxCell>
        <mxCell id="otucCCkhgbF7Wdb0TqmZ-12" value="&lt;font style=&quot;font-size: 13px;&quot;&gt;STORAGE&lt;/font&gt;" style="aspect=fixed;perimeter=ellipsePerimeter;html=1;align=center;shadow=0;dashed=0;fontColor=#4277BB;labelBackgroundColor=#ffffff;fontSize=13;spacingTop=3;image;image=img/lib/ibm/data/data_services.svg;" parent="1" vertex="1">
          <mxGeometry x="779" y="760.39" width="32" height="31.22" as="geometry" />
        </mxCell>
      </root>
    </mxGraphModel>
  </diagram>
</mxfile>
